<svg width="26" height="26" viewBox="0 0 26 26" fill="none" xmlns="http://www.w3.org/2000/svg">
<path d="M20.5833 10.8333H19.695L17.8533 5.76333C17.7009 5.34527 17.4239 4.98403 17.0597 4.72833C16.6955 4.47263 16.2617 4.33476 15.8167 4.33333H14.0833C13.4875 4.33333 13 4.82083 13 5.41666C13 6.01249 13.4875 6.49999 14.0833 6.49999H15.8167L17.3983 10.8333H12.1875L11.7975 9.74999H11.895C12.4908 9.74999 12.9783 9.26249 12.9783 8.66666C12.9783 8.07083 12.4908 7.58333 11.895 7.58333H8.66667C8.07083 7.58333 7.58333 8.07083 7.58333 8.66666C7.58333 9.26249 8.07083 9.74999 8.66667 9.74999H9.47917L11.4508 15.1667H10.725C10.2483 12.7508 8.2225 10.9633 5.6875 10.8442C2.65417 10.6925 0 13.2167 0 16.25C0 19.2833 2.38333 21.6667 5.41667 21.6667C8.08167 21.6667 10.2375 19.8358 10.725 17.3333H15.275C15.7517 19.7492 17.7775 21.5367 20.3125 21.6558C23.3458 21.7967 26 19.2833 26 16.2392C26 13.2167 23.6167 10.8333 20.5833 10.8333ZM6.5 17.3333H8.47167C8.01667 18.6658 6.73833 19.5867 5.2 19.4892C3.58583 19.3917 2.2425 18.0267 2.16667 16.4017C2.09083 14.5058 3.5425 13 5.41667 13C6.8575 13 8.03833 13.8992 8.47167 15.1667H6.5C5.90417 15.1667 5.41667 15.6542 5.41667 16.25C5.41667 16.8458 5.90417 17.3333 6.5 17.3333ZM15.275 15.1667H13.7583L12.9675 13H16.25C15.7733 13.6283 15.4267 14.3542 15.275 15.1667ZM20.4533 19.5C18.785 19.435 17.3767 18.0158 17.3333 16.3367C17.3117 15.2967 17.7558 14.3867 18.4708 13.78L19.1425 15.6217C19.3483 16.185 19.9658 16.4775 20.5292 16.2717C21.0925 16.0658 21.385 15.4483 21.1792 14.885L20.4967 13.0108L20.5075 13C20.9418 12.9852 21.3747 13.0585 21.7799 13.2157C22.1851 13.3728 22.5543 13.6104 22.8651 13.9141C23.1759 14.2179 23.422 14.5814 23.5884 14.9829C23.7548 15.3844 23.8381 15.8154 23.8333 16.25C23.8333 18.1133 22.3383 19.565 20.4533 19.5Z" fill="url(#paint0_linear_44_182)"/>
<defs>
<linearGradient id="paint0_linear_44_182" x1="13" y1="4.33333" x2="13" y2="21.6667" gradientUnits="userSpaceOnUse">
<stop stop-color="#FFB60D"/>
<stop offset="1" stop-color="#E59317"/>
</linearGradient>
</defs>
</svg>
